<svg width="24" height="24" viewBox="0 0 24 24" fill="none" xmlns="http://www.w3.org/2000/svg">
<path d="M18.8333 19C17.5383 19 16.5 20.0383 16.5 21.3333C16.5 21.9522 16.7458 22.5457 17.1834 22.9832C17.621 23.4208 18.2145 23.6667 18.8333 23.6667C19.4521 23.6667 20.0456 23.4208 20.4832 22.9832C20.9208 22.5457 21.1666 21.9522 21.1666 21.3333C21.1666 20.7145 20.9208 20.121 20.4832 19.6834C20.0456 19.2458 19.4521 19 18.8333 19ZM0.166626 0.333328V2.66666H2.49996L6.69996 11.5217L5.11329 14.38C4.93829 14.7067 4.83329 15.0917 4.83329 15.5C4.83329 16.1188 5.07913 16.7123 5.51671 17.1499C5.9543 17.5875 6.54779 17.8333 7.16663 17.8333H21.1666V15.5H7.65663C7.57927 15.5 7.50508 15.4693 7.45039 15.4146C7.39569 15.3599 7.36496 15.2857 7.36496 15.2083C7.36496 15.15 7.37663 15.1033 7.39996 15.0683L8.44996 13.1667H17.1416C18.0166 13.1667 18.7866 12.6767 19.1833 11.965L23.36 4.41666C23.4416 4.23 23.5 4.03166 23.5 3.83333C23.5 3.52391 23.377 3.22716 23.1583 3.00837C22.9395 2.78958 22.6427 2.66666 22.3333 2.66666H5.07829L3.98163 0.333328M7.16663 19C5.87163 19 4.83329 20.0383 4.83329 21.3333C4.83329 21.9522 5.07913 22.5457 5.51671 22.9832C5.9543 23.4208 6.54779 23.6667 7.16663 23.6667C7.78546 23.6667 8.37896 23.4208 8.81654 22.9832C9.25413 22.5457 9.49996 21.9522 9.49996 21.3333C9.49996 20.7145 9.25413 20.121 8.81654 19.6834C8.37896 19.2458 7.78546 19 7.16663 19Z" fill="#6E6E6E"/>
</svg>
