<svg width="20" height="22" viewBox="0 0 20 22" fill="none" xmlns="http://www.w3.org/2000/svg">
<path d="M11.4042 1.34319C11.0187 0.996876 10.5188 0.805298 10.0006 0.805298C9.48248 0.805298 8.9826 0.996876 8.59715 1.34319L0.897151 8.26199C0.677968 8.45874 0.502624 8.6994 0.382509 8.96833C0.262395 9.23726 0.200195 9.52845 0.199951 9.82299V19.7C0.199951 20.2569 0.421201 20.7911 0.815027 21.1849C1.20885 21.5787 1.743 21.8 2.29995 21.8H5.09995C5.65691 21.8 6.19105 21.5787 6.58488 21.1849C6.9787 20.7911 7.19995 20.2569 7.19995 19.7V14.1C7.19995 13.9143 7.2737 13.7363 7.40497 13.605C7.53625 13.4737 7.7143 13.4 7.89995 13.4H12.0999C12.2856 13.4 12.4636 13.4737 12.5949 13.605C12.7262 13.7363 12.7999 13.9143 12.7999 14.1V19.7C12.7999 20.2569 13.0212 20.7911 13.415 21.1849C13.8089 21.5787 14.343 21.8 14.9 21.8H17.6999C18.2569 21.8 18.791 21.5787 19.1849 21.1849C19.5787 20.7911 19.7999 20.2569 19.7999 19.7V9.82299C19.7999 9.52856 19.7379 9.23743 19.618 8.9685C19.4982 8.69958 19.3231 8.45886 19.1041 8.26199L11.4042 1.34319Z" fill="#6E6E6E"/>
</svg>
