<svg width="22" height="22" viewBox="0 0 22 22" fill="none" xmlns="http://www.w3.org/2000/svg">
<path fill-rule="evenodd" clip-rule="evenodd" d="M6.33333 5.16667C6.33333 3.92899 6.825 2.742 7.70017 1.86683C8.57534 0.991665 9.76232 0.5 11 0.5C12.2377 0.5 13.4247 0.991665 14.2998 1.86683C15.175 2.742 15.6667 3.92899 15.6667 5.16667C15.6667 6.40434 15.175 7.59133 14.2998 8.4665C13.4247 9.34167 12.2377 9.83333 11 9.83333C9.76232 9.83333 8.57534 9.34167 7.70017 8.4665C6.825 7.59133 6.33333 6.40434 6.33333 5.16667ZM6.33333 12.1667C4.78624 12.1667 3.30251 12.7812 2.20854 13.8752C1.11458 14.9692 0.5 16.4529 0.5 18C0.5 18.9283 0.868749 19.8185 1.52513 20.4749C2.1815 21.1313 3.07174 21.5 4 21.5H18C18.9283 21.5 19.8185 21.1313 20.4749 20.4749C21.1313 19.8185 21.5 18.9283 21.5 18C21.5 16.4529 20.8854 14.9692 19.7915 13.8752C18.6975 12.7812 17.2138 12.1667 15.6667 12.1667H6.33333Z" fill="#6E6E6E"/>
</svg>
