<svg width="26" height="24" viewBox="0 0 26 24" fill="none" xmlns="http://www.w3.org/2000/svg">
<path fill-rule="evenodd" clip-rule="evenodd" d="M0.166626 1.49999C0.166626 1.19058 0.289542 0.893829 0.508335 0.675037C0.727127 0.456245 1.02387 0.333328 1.33329 0.333328H14.1666C14.476 0.333328 14.7728 0.456245 14.9916 0.675037C15.2104 0.893829 15.3333 1.19058 15.3333 1.49999V7.33333H20C20.766 7.33333 21.5245 7.48421 22.2323 7.77736C22.94 8.07052 23.5831 8.5002 24.1247 9.04187C24.6664 9.58355 25.0961 10.2266 25.3893 10.9343C25.6824 11.6421 25.8333 12.4006 25.8333 13.1667V17.8333C25.8334 18.5844 25.592 19.3155 25.1448 19.9189C24.6975 20.5222 24.0681 20.9658 23.3495 21.184C23.1355 21.8898 22.704 22.51 22.1166 22.9561C21.5292 23.4021 20.8159 23.6512 20.0786 23.6677C19.3412 23.6843 18.6174 23.4675 18.0106 23.0483C17.4038 22.629 16.9449 22.0288 16.6995 21.3333H9.30163C9.05619 22.0288 8.5973 22.629 7.99047 23.0483C7.38365 23.4675 6.65989 23.6843 5.92253 23.6677C5.18516 23.6512 4.47187 23.4021 3.88447 22.9561C3.29708 22.51 2.8656 21.8898 2.65163 21.184C1.93277 20.966 1.3031 20.5225 0.85562 19.9192C0.40814 19.3158 0.166581 18.5845 0.166626 17.8333V13.1667H7.16663C7.47605 13.1667 7.77279 13.0437 7.99158 12.825C8.21038 12.6062 8.33329 12.3094 8.33329 12C8.33329 11.6906 8.21038 11.3938 7.99158 11.175C7.77279 10.9562 7.47605 10.8333 7.16663 10.8333H0.166626V8.49999H4.83329C5.14271 8.49999 5.43946 8.37708 5.65825 8.15829C5.87704 7.93949 5.99996 7.64275 5.99996 7.33333C5.99996 7.02391 5.87704 6.72716 5.65825 6.50837C5.43946 6.28958 5.14271 6.16666 4.83329 6.16666H0.166626V1.49999ZM15.3333 19H16.6995C16.9301 18.3472 17.3492 17.7774 17.9037 17.3628C18.4582 16.9482 19.1232 16.7074 19.8146 16.6708C20.506 16.6342 21.1927 16.8035 21.7878 17.1573C22.383 17.511 22.8599 18.0333 23.1581 18.6582C23.2666 18.55 23.3527 18.4214 23.4113 18.2798C23.47 18.1383 23.5001 17.9866 23.5 17.8333V13.1667C23.5 12.2384 23.1312 11.3482 22.4748 10.6918C21.8185 10.0354 20.9282 9.66666 20 9.66666H15.3333V19ZM7.16663 20.1667C7.16663 19.8572 7.04371 19.5605 6.82492 19.3417C6.60612 19.1229 6.30938 19 5.99996 19C5.69054 19 5.39379 19.1229 5.175 19.3417C4.95621 19.5605 4.83329 19.8572 4.83329 20.1667C4.83329 20.4761 4.95621 20.7728 5.175 20.9916C5.39379 21.2104 5.69054 21.3333 5.99996 21.3333C6.30938 21.3333 6.60612 21.2104 6.82492 20.9916C7.04371 20.7728 7.16663 20.4761 7.16663 20.1667ZM19.1751 19.3418C19.0665 19.4499 18.9803 19.5784 18.9216 19.72C18.863 19.8616 18.8329 20.0134 18.8333 20.1667C18.8332 20.4366 18.9268 20.6982 19.098 20.9068C19.2692 21.1155 19.5074 21.2584 19.7721 21.3111C20.0368 21.3638 20.3117 21.3231 20.5497 21.1959C20.7878 21.0687 20.9744 20.8629 21.0777 20.6136C21.1811 20.3642 21.1948 20.0867 21.1164 19.8284C21.0381 19.5701 20.8727 19.347 20.6483 19.197C20.4239 19.047 20.1544 18.9794 19.8858 19.0058C19.6172 19.0323 19.366 19.151 19.1751 19.3418Z" fill="#6E6E6E"/>
</svg>
